<svg width="462" height="432" viewBox="0 0 462 432" fill="none" xmlns="http://www.w3.org/2000/svg">
<path fill-rule="evenodd" clip-rule="evenodd" d="M257.965 5.6305e-06C310.192 -0.0122654 360.429 20.0333 398.302 55.9961C436.175 91.9597 458.792 141.095 461.479 193.254C461.697 196.868 461.498 201.89 461.498 203.735V213.892L461.472 214.337C457.919 273.976 431.382 329.916 387.439 370.395C343.497 410.873 285.572 432.738 225.842 431.394C166.112 430.049 109.23 405.599 67.1543 363.184C25.0782 320.768 1.08574 263.691 0.220703 203.952L0 188.735H54.7363C57.9973 142.542 76.9378 98.6668 108.665 64.5244C143.822 26.6912 192.048 3.63778 243.568 0.0361384L244.091 5.6305e-06H257.965ZM359.133 93.0996C330.89 66.2682 293.145 51.755 254.202 52.7529C215.259 53.7509 178.307 70.1774 151.476 98.4199C138.19 112.404 127.789 128.869 120.866 146.873C113.944 164.877 110.635 184.068 111.129 203.351L111.134 203.543V245.235H62.3652C70.9976 279.836 90.1041 311.101 117.277 334.628C148.876 361.986 189.27 377.051 231.066 377.066H244.031C286.361 373.936 326.082 355.401 355.673 324.955C377.357 302.644 392.492 275.075 399.79 245.25L331.924 206.201L251.301 252.591V125.507L331.924 171.899L391.21 137.783C383.499 121.16 372.676 105.966 359.133 93.0996Z" fill="#E70000"/>
</svg>
